HIERARCHY
ROOT Hips
{
   OFFSET 0.00000 0.00000 0.00000
   CHANNELS 6 Xposition Yposition Zposition Zrotation Xrotation Yrotation
   JOINT RightUpLeg
   {
      OFFSET -8.051219 -7.800363 0.091487
      CHANNELS 3 Zrotation Xrotation Yrotation
      JOINT RightLeg
      {
         OFFSET 0.000000 -39.980428 1.235430
         CHANNELS 3 Zrotation Xrotation Yrotation
         JOINT RightFoot
         {
            OFFSET 0.228194 -37.883157 -1.314531
            CHANNELS 3 Zrotation Xrotation Yrotation
            JOINT RightToes
            {
               OFFSET 0.036000 -3.973581 7.649189
               CHANNELS 3 Zrotation Xrotation Yrotation
               End Site
               {
                  OFFSET -0.072000 -0.123703 8.801811
               }
            }
         }
      }
   }
   JOINT Spine
   {
      OFFSET 0.000000 10.701450 0.000000
      CHANNELS 3 Zrotation Xrotation Yrotation
      JOINT Spine1
      {
         OFFSET 0.000000 23.091659 0.114897
         CHANNELS 3 Zrotation Xrotation Yrotation
         JOINT HEad
         {
            OFFSET 0.000000 7.860744 0.010207
            CHANNELS 3 Zrotation Xrotation Yrotation
            End Site
            {
               OFFSET -0.261000 11.496780 2.262555
            }
         }
         JOINT LeftShoulder1
         {
            OFFSET 8.091000 -0.326027 -0.198000
            CHANNELS 3 Zrotation Xrotation Yrotation
            JOINT LeftArm
            {
               OFFSET 9.254430 -0.003042 0.289911
               CHANNELS 3 Zrotation Xrotation Yrotation
               JOINT LeftForeArm
               {
                  OFFSET 29.490208 0.089230 -1.281906
                  CHANNELS 3 Zrotation Xrotation Yrotation
                  JOINT LeftHand
                  {
                     OFFSET 24.807870 0.076826 0.919944
                     CHANNELS 3 Zrotation Xrotation Yrotation
                     End Site
                     {
                        OFFSET 15.069871 -0.540000 1.352619
                     }
                  }
               }
            }
         }
         JOINT RightShoulder
         {
            OFFSET -8.091000 -0.326027 -0.198000
            CHANNELS 3 Zrotation Xrotation Yrotation
            JOINT RightArm
            {
               OFFSET -9.254430 -0.003042 0.289911
               CHANNELS 3 Zrotation Xrotation Yrotation
               JOINT RightForeArm
               {
                  OFFSET -29.607386 0.089230 -1.281906
                  CHANNELS 3 Zrotation Xrotation Yrotation
                  JOINT RightHand
                  {
                     OFFSET -24.742889 0.076826 0.919944
                     CHANNELS 3 Zrotation Xrotation Yrotation
                     End Site
                     {
                        OFFSET -14.968080 -0.540000 1.352619
                     }
                  }
               }
            }
         }
      }
   }
   JOINT LeftUpLeg
   {
      OFFSET 8.051219 -7.800363 0.091487
      CHANNELS 3 Zrotation Xrotation Yrotation
      JOINT LeftLeg
      {
         OFFSET 0.000000 -39.980428 1.235430
         CHANNELS 3 Zrotation Xrotation Yrotation
         JOINT LeftFoot
         {
            OFFSET -0.228194 -37.883157 -1.314531
            CHANNELS 3 Zrotation Xrotation Yrotation
            JOINT LeftToes
            {
               OFFSET -0.036000 -3.973581 7.649189
               CHANNELS 3 Zrotation Xrotation Yrotation
               End Site
               {
                  OFFSET 0.072000 -0.042703 8.801811
               }
            }
         }
      }
   }
}
MOTION
Frames: 12
Frame Time: 0.016667
-207.845990 95.454701 -483.825791 4.626027 -19.093601 6.774614 -12.451538 -0.222323 -36.669776 -11.635671 33.031608 -4.821267 -28.494352 15.472479 44.661709 9.592842 2.078181 -19.141839 -8.806446 23.170805 125.500805 42.409334 -27.874668 -123.597887 -19.237484 -31.015588 -4.923733 42.791364 87.733780 -45.434374 110.911965 -65.455595 77.945033 -54.795428 -73.270909 -104.582006 -52.877446 -49.648420 -90.814817 -49.967929 49.750398 80.347415 100.651573 33.228139 200.979614 -2.567465 93.523929 70.067298 4.527711 -1.571228 55.519196 20.613210 -12.079548 -133.555675 -15.160124 -21.510878 131.501086 -47.796731 3.525573 63.504223 5.446319 3.180175 -8.237803
-207.141358 95.156086 -482.911904 3.915787 -18.847314 6.365151 -12.924528 0.164082 -36.131486 -10.723388 33.493438 -4.689963 -28.337137 15.430852 44.758329 9.359685 1.756077 -18.895758 -7.107418 22.287544 124.788881 42.391911 -28.520222 -122.686576 -19.943597 -30.808378 -5.261977 42.508027 87.122396 -44.269803 111.279812 -66.194246 78.797331 -55.211844 -74.070751 -104.257380 -53.500650 -49.983464 -88.574412 -50.369913 50.495527 80.284072 101.142677 31.527508 200.061555 -3.114407 91.952002 69.620002 3.751371 -1.998226 55.267941 21.499921 -13.534335 -133.881926 -13.370500 -22.590065 128.951116 -40.781663 4.304454 63.005995 5.617740 3.746684 -8.804039
-206.240384 94.725188 -481.735833 3.891784 -18.844176 5.516303 -13.603818 0.896985 -35.570208 -10.299579 33.400551 -4.803123 -28.490698 15.163561 44.505253 8.915358 1.100898 -18.749335 -6.325068 21.203697 124.202359 41.742681 -28.415254 -121.915024 -21.282658 -30.310412 -5.471654 41.000283 86.977036 -43.609149 112.577261 -66.051822 79.612227 -56.292138 -74.850950 -104.837516 -53.619304 -51.986492 -84.823375 -51.303112 50.668495 80.295847 101.045375 28.746968 199.937013 -3.970400 89.560289 69.327561 3.076308 -1.829544 53.901076 23.990232 -13.674118 -133.410929 -11.411275 -21.653264 126.119580 -50.320698 0.969915 63.060896 5.486048 1.774422 -9.474412
-205.146825 94.283970 -480.318024 2.720208 -18.810706 4.330687 -13.534455 1.626490 -34.946041 -9.795965 33.345011 -4.394572 -28.729166 15.609376 44.486832 8.366460 0.395741 -18.316052 -4.740290 20.774570 123.737647 41.571151 -27.757061 -120.755982 -22.278696 -30.374917 -5.704667 38.145261 88.000267 -42.407924 114.161387 -65.248647 80.708514 -57.439398 -74.468084 -106.301526 -53.127414 -53.166145 -83.747210 -52.152207 51.209026 80.099896 101.980462 24.706871 199.898586 -4.531130 85.579163 69.636463 2.590284 -1.557268 52.923649 24.047802 -15.007201 -132.921314 -12.009007 -21.411683 123.968070 -42.323834 0.610741 63.211290 5.573779 1.373098 -10.319789
-203.829381 93.678769 -478.768227 2.223625 -18.480991 2.429576 -13.941238 2.157476 -34.246661 -9.747120 32.858411 -4.129450 -29.222391 15.772394 44.177312 7.604315 -0.696676 -17.944121 -2.959668 19.984102 122.388520 40.886223 -27.576165 -120.003173 -22.870412 -31.035297 -5.943679 34.933566 89.633249 -41.580747 116.519353 -63.392857 81.938918 -59.244822 -73.426986 -106.575171 -52.525254 -53.557918 -84.211929 -53.415068 51.635752 79.370780 103.186011 19.475046 199.741137 -5.595283 80.586158 69.651011 2.210697 -1.064086 51.512027 24.576457 -15.412872 -132.529589 -11.858320 -20.410094 123.739122 -43.970941 -0.950364 63.205546 5.590599 0.311891 -11.380493
-202.367246 93.004874 -477.226861 2.436685 -18.744954 2.402836 -14.892157 3.443695 -33.239478 -9.721412 32.781104 -3.821149 -30.061677 15.521426 43.392178 6.694558 -2.081603 -17.623066 -1.497718 19.962900 122.169627 40.881069 -24.878887 -118.613461 -23.028148 -32.527447 -6.186879 30.113986 92.212492 -39.734940 119.413768 -60.819788 85.436391 -58.512236 -71.080310 -107.454865 -51.755157 -52.950075 -85.882669 -53.288634 52.706821 79.080477 105.553982 14.086243 198.996796 -6.476752 74.014006 70.116734 1.481137 -1.147036 51.055275 24.789145 -16.920076 -132.018022 -11.219509 -19.262590 123.627858 -46.335771 -2.261528 63.228612 5.609752 -0.941894 -12.467752
-200.685212 92.344521 -475.655015 1.760542 -18.607659 0.527426 -15.476129 4.151914 -32.168514 -9.723602 32.151787 -3.214738 -31.061839 15.829547 42.759426 5.762557 -3.281472 -16.966093 -1.238145 19.332012 120.332128 40.458065 -22.668513 -117.400502 -23.299514 -34.521692 -6.329340 26.390627 95.345042 -37.600130 122.163343 -58.605168 90.082805 -59.298350 -66.670016 -107.808348 -52.166236 -51.387123 -86.282064 -53.938014 52.576488 78.138054 106.955647 7.995961 197.196400 -7.701239 67.265820 70.264669 0.637690 -1.517207 50.910649 24.865509 -17.750593 -131.452414 -11.962732 -18.441516 123.730256 -44.610380 -2.437863 62.885272 5.750503 -1.652329 -13.644682
-198.940904 92.960967 -474.131692 1.050167 -18.948091 -2.624114 -16.211597 4.118402 -31.520001 -10.766148 32.011406 -1.625024 -31.849920 16.839862 42.155320 4.878952 -4.134343 -16.160643 -1.785113 17.664724 116.148200 39.772881 -21.351248 -116.830044 -23.567192 -34.481312 -6.063780 21.764087 96.279030 -35.359667 121.795619 -58.196497 94.741848 -59.425111 -64.083027 -108.650681 -48.229660 -48.606621 -89.432837 -55.313505 50.508853 78.541472 108.263532 -2.237096 192.110053 -9.815053 59.797350 69.860923 2.283973 -0.592161 46.104337 24.553635 -16.879802 -130.501310 -13.614458 -17.798165 122.718596 -43.656401 -2.294966 62.103311 5.873895 -2.196288 -14.755234
-197.254636 93.269795 -472.802842 -0.025970 -19.324273 -4.822608 -17.169887 3.475017 -31.259477 -12.481538 32.272268 1.580296 -29.357236 17.995906 41.548324 4.034677 -4.352938 -14.577133 -2.040990 14.558273 112.525720 37.423149 -22.829040 -117.190364 -24.465702 -32.075265 -5.265555 17.832618 95.713565 -33.964400 122.869721 -59.078425 98.737952 -60.342515 -60.278728 -107.279964 -44.469258 -44.462441 -90.816866 -56.683081 44.067127 78.954685 111.868663 -15.835442 187.757215 -13.004718 51.428008 67.703560 -0.238776 -0.970153 40.967478 24.102003 -15.730337 -128.756388 -15.207939 -17.684478 120.993045 -42.928798 -1.642316 61.317791 5.978845 -2.568593 -15.543111
-195.644128 93.424357 -471.663926 0.585973 -19.988354 -4.880876 -19.295230 3.584555 -31.976979 -14.818949 32.049566 5.763257 -26.980180 18.983213 40.624264 3.178160 -4.258637 -12.602997 1.233294 11.251829 113.431977 36.419658 -19.706660 -115.490139 -24.508394 -28.184263 -4.247852 18.079417 92.460845 -30.848191 127.314562 -58.330437 102.388866 -60.057696 -58.083915 -105.622216 -40.642921 -39.687361 -93.341112 -59.961295 40.923102 83.080427 116.135523 -27.526359 185.523483 -14.584409 41.716784 66.479898 -6.450800 -2.185815 35.119296 21.796409 -14.833441 -126.790987 -17.021504 -17.726880 118.171616 -42.671665 0.195833 60.342085 6.226432 -2.133450 -16.077038
-194.126737 93.562497 -470.825188 -0.738227 -19.441688 -5.146539 -18.957861 2.743967 -35.605247 -16.697816 31.066374 10.386036 -24.972562 20.676507 39.546860 2.391961 -4.016306 -10.792026 2.025060 12.518291 116.403827 34.877760 -15.106176 -112.674742 -22.010230 -24.314251 -2.268552 18.759179 83.911599 -24.791372 125.096363 -60.946960 101.386741 -57.336945 -58.224234 -104.841935 -50.006878 -46.937299 -83.663049 -66.590192 48.760533 83.295701 121.135304 -31.601004 194.168426 -13.357333 35.052165 64.656299 -17.558398 -3.016493 33.436781 21.246808 -14.791751 -123.623337 -18.342299 -17.192513 112.575410 -41.441442 2.114210 59.061513 6.497340 -1.494267 -16.482044
-192.797124 93.787173 -470.128129 -1.882499 -19.152156 -6.324348 -19.201499 1.224935 -40.658535 -19.063977 30.618304 15.993323 -23.199072 23.035590 38.441510 1.719059 -3.199759 -8.753289 4.297467 13.547644 119.105959 31.186009 -11.662024 -111.306170 -17.463568 -22.502181 0.722564 16.562922 76.583715 -22.222707 119.027207 -62.408709 95.118703 -55.119278 -57.836983 -102.080715 -50.660664 -30.294341 -91.640027 -73.748489 53.019941 81.681221 124.977108 -39.917722 197.146922 -14.216084 26.360369 57.811431 -22.901641 -3.188478 31.437561 20.661865 -14.312686 -119.112967 -20.042714 -17.209596 105.368195 -41.176202 3.843564 57.252350 6.814014 -0.653939 -16.819115
